<svg width="400" height="81" viewBox="0 0 400 81" fill="none" xmlns="http://www.w3.org/2000/svg">
<path d="M14.0752 35.6421V27.0872H44.6042V35.6421H14.0752ZM14.0752 50.3199V41.765H44.6042V50.3199H14.0752Z" fill="url(#paint0_linear_813_10)"/>
<path d="M49.5859 43.1304V34.2554L80.4776 21.2843V30.9913L60.0822 38.6075L60.4023 38.1382V39.2689L60.0822 38.7782L80.4776 46.4158V56.1015L49.5859 43.1304Z" fill="url(#paint1_linear_813_10)"/>
<path d="M0 0H8.58238V77.2414H0V0Z" fill="url(#paint2_linear_813_10)"/>
<path d="M85.8238 0H94.4062V77.2414H85.8238V0Z" fill="url(#paint3_linear_813_10)"/>
<path d="M0 0H24.2023V8.58238H0V0Z" fill="url(#paint4_linear_813_10)"/>
<path d="M0 68.659H24.2023V77.2414H0V68.659Z" fill="url(#paint5_linear_813_10)"/>
<path d="M70.2039 68.659H94.4062V77.2414H70.2039V68.659Z" fill="url(#paint6_linear_813_10)"/>
<path d="M70.2039 0H94.4062V8.58238H70.2039V0Z" fill="url(#paint7_linear_813_10)"/>
<path d="M140.408 0.343323C144.413 0.343323 147.932 1.00131 150.964 2.31727C154.054 3.57602 156.857 5.46414 159.375 7.98164L153.11 15.1908C149.391 11.9868 145.586 10.3847 141.695 10.3847C139.521 10.3847 137.804 10.9283 136.546 12.0154C135.287 13.1025 134.658 14.5901 134.658 16.4782C134.658 17.737 134.944 18.7954 135.516 19.6537C136.088 20.5119 137.089 21.3416 138.52 22.1426C139.95 22.9436 142.067 23.859 144.871 24.8889C148.532 26.2621 151.479 27.7497 153.71 29.3518C155.999 30.8966 157.744 32.8419 158.946 35.1878C160.147 37.5336 160.748 40.4517 160.748 43.9418C160.748 47.6036 159.861 50.8649 158.088 53.7257C156.371 56.5293 153.854 58.7321 150.535 60.3342C147.274 61.9362 143.44 62.7372 139.035 62.7372C130.738 62.7372 123.844 59.9337 118.351 54.3265L125.045 46.8598C127.162 48.6907 129.279 50.0925 131.396 51.0652C133.57 52.0379 135.859 52.5242 138.262 52.5242C140.894 52.5242 142.925 51.8376 144.356 50.4644C145.786 49.0913 146.501 47.2603 146.501 44.9717C146.501 42.7975 145.843 41.0524 144.527 39.7365C143.211 38.4205 140.722 37.1045 137.061 35.7886C131.11 33.5571 126.876 31.0396 124.359 28.2361C121.841 25.4325 120.582 21.8565 120.582 17.5081C120.582 14.1323 121.441 11.1571 123.157 8.58241C124.874 5.95048 127.22 3.91932 130.195 2.48892C133.227 1.05852 136.632 0.343323 140.408 0.343323Z" fill="#A3A0A0"/>
<path d="M189.91 61.3641C186.649 73.2077 178.696 79.5301 166.051 80.3311L164.592 71.148C168.54 70.5758 171.487 69.5459 173.432 68.0583C175.377 66.6279 176.922 64.3679 178.066 61.2782H173.346L161.159 15.7058H174.719L181.757 52.8675L189.567 15.7058H202.869L189.91 61.3641Z" fill="#A3A0A0"/>
<path d="M231.757 14.2468C235.304 14.2468 238.079 15.4483 240.081 17.8514C242.141 20.1972 243.171 23.4299 243.171 27.5495V61.2782H229.954V29.3518C229.954 27.4636 229.668 26.1477 229.096 25.4039C228.581 24.6029 227.78 24.2023 226.693 24.2023C225.549 24.2023 224.433 24.6887 223.346 25.6613C222.316 26.5768 221.229 27.95 220.084 29.7809V61.2782H206.868V15.7058H218.454L219.398 21.1127C221.057 18.8241 222.888 17.1076 224.891 15.9633C226.893 14.8189 229.182 14.2468 231.757 14.2468Z" fill="#A3A0A0"/>
<path d="M278.48 59.1326C276.935 60.277 275.133 61.1638 273.073 61.7932C271.071 62.4226 269.04 62.7372 266.98 62.7372C262.345 62.7372 258.855 61.4213 256.509 58.7893C254.163 56.1574 252.991 52.467 252.991 47.7181V24.8889H247.498V15.7058H252.991V5.83605L266.207 4.29122V15.7058H275.562L274.189 24.8889H266.207V47.5464C266.207 50.6933 267.409 52.2667 269.812 52.2667C271.128 52.2667 272.558 51.8376 274.103 50.9794L278.48 59.1326Z" fill="#A3A0A0"/>
<path d="M314.766 48.6621C314.766 50.207 314.967 51.3513 315.367 52.0951C315.768 52.8389 316.454 53.4111 317.427 53.8116L314.68 62.4798C312.049 62.2509 309.903 61.6501 308.244 60.6775C306.584 59.7048 305.297 58.1886 304.382 56.1288C301.578 60.5344 297.487 62.7372 292.109 62.7372C287.989 62.7372 284.699 61.4499 282.239 58.8752C279.836 56.2432 278.634 52.7817 278.634 48.4905C278.634 43.5127 280.294 39.7078 283.612 37.0759C286.988 34.444 291.851 33.128 298.202 33.128H301.807V30.9824C301.807 28.2933 301.321 26.4338 300.348 25.4039C299.375 24.3168 297.659 23.7732 295.198 23.7732C292.395 23.7732 288.819 24.5456 284.47 26.0905L281.467 17.5939C283.984 16.5068 286.673 15.6772 289.534 15.105C292.395 14.5329 295.055 14.2468 297.516 14.2468C303.409 14.2468 307.757 15.5627 310.561 18.1947C313.364 20.8266 314.766 24.8317 314.766 30.21V48.6621ZM296.057 53.2966C297.258 53.2966 298.345 52.9247 299.318 52.1809C300.348 51.4371 301.177 50.3786 301.807 49.0054V40.5089H299.404C296.715 40.5089 294.741 41.081 293.482 42.2253C292.223 43.3124 291.594 45.0289 291.594 47.3748C291.594 49.3201 291.966 50.8077 292.71 51.8376C293.511 52.8103 294.626 53.2966 296.057 53.2966Z" fill="#A3A0A0"/>
<path d="M347.385 36.9043L360.516 61.2782H346.184L339.146 44.0276L332.452 61.2782H318.549L331.594 37.3334L319.75 15.7058H333.911L339.49 30.4675L344.811 15.7058H358.457L347.385 36.9043Z" fill="#A3A0A0"/>
<path d="M400 37.5909C400 39.4218 399.914 41.0238 399.743 42.397H374.339C374.682 46.4021 375.569 49.1771 376.999 50.7219C378.43 52.2667 380.461 53.0391 383.093 53.0391C384.809 53.0391 386.44 52.7245 387.985 52.0951C389.53 51.4657 391.217 50.493 393.048 49.1771L398.455 56.4721C393.764 60.6489 388.299 62.7372 382.063 62.7372C375.197 62.7372 369.962 60.6203 366.357 56.3863C362.81 52.0951 361.036 46.2018 361.036 38.7066C361.036 31.3829 362.753 25.4897 366.185 21.0269C369.618 16.5068 374.453 14.2468 380.69 14.2468C386.697 14.2468 391.418 16.2779 394.851 20.3403C398.284 24.3454 400 30.0956 400 37.5909ZM387.041 33.8146C387.041 30.21 386.554 27.5209 385.582 25.7472C384.666 23.9163 383.093 23.0008 380.861 23.0008C378.859 23.0008 377.314 23.859 376.227 25.5755C375.14 27.2348 374.482 30.1814 374.253 34.4154H387.041V33.8146Z" fill="#A3A0A0"/>
<defs>
<linearGradient id="paint0_linear_813_10" x1="67.4477" y1="21.2843" x2="27.1051" y2="56.1015" gradientUnits="userSpaceOnUse">
<stop stop-color="#D37146"/>
<stop offset="1" stop-color="#848E90"/>
</linearGradient>
<linearGradient id="paint1_linear_813_10" x1="67.4477" y1="21.2843" x2="27.1051" y2="56.1015" gradientUnits="userSpaceOnUse">
<stop stop-color="#D37146"/>
<stop offset="1" stop-color="#848E90"/>
</linearGradient>
<linearGradient id="paint2_linear_813_10" x1="77.9912" y1="-2.19617e-06" x2="16.415" y2="77.2414" gradientUnits="userSpaceOnUse">
<stop stop-color="#D37146"/>
<stop offset="1" stop-color="#848E91"/>
</linearGradient>
<linearGradient id="paint3_linear_813_10" x1="77.9912" y1="-2.19617e-06" x2="16.415" y2="77.2414" gradientUnits="userSpaceOnUse">
<stop stop-color="#D37146"/>
<stop offset="1" stop-color="#848E91"/>
</linearGradient>
<linearGradient id="paint4_linear_813_10" x1="77.9912" y1="-2.19617e-06" x2="16.415" y2="77.2414" gradientUnits="userSpaceOnUse">
<stop stop-color="#D37146"/>
<stop offset="1" stop-color="#848E91"/>
</linearGradient>
<linearGradient id="paint5_linear_813_10" x1="77.9912" y1="-2.19617e-06" x2="16.415" y2="77.2414" gradientUnits="userSpaceOnUse">
<stop stop-color="#D37146"/>
<stop offset="1" stop-color="#848E91"/>
</linearGradient>
<linearGradient id="paint6_linear_813_10" x1="77.9912" y1="-2.19617e-06" x2="16.415" y2="77.2414" gradientUnits="userSpaceOnUse">
<stop stop-color="#D37146"/>
<stop offset="1" stop-color="#848E91"/>
</linearGradient>
<linearGradient id="paint7_linear_813_10" x1="77.9912" y1="-2.19617e-06" x2="16.415" y2="77.2414" gradientUnits="userSpaceOnUse">
<stop stop-color="#D37146"/>
<stop offset="1" stop-color="#848E91"/>
</linearGradient>
</defs>
</svg>
