<svg width="3874" height="1026" viewBox="0 0 3874 1026" fill="none" xmlns="http://www.w3.org/2000/svg">
<path d="M1525.2 608.527C1525.2 633.918 1519.05 655.988 1506.74 674.738C1494.44 693.488 1476.47 707.941 1452.84 718.098C1429.4 728.254 1400.88 733.332 1367.29 733.332C1352.45 733.332 1337.89 732.355 1323.64 730.402C1309.57 728.449 1296 725.617 1282.91 721.906C1270.02 718 1257.72 713.215 1246 707.551V623.176C1266.31 632.16 1287.41 640.266 1309.28 647.492C1331.16 654.719 1352.84 658.332 1374.32 658.332C1389.16 658.332 1401.08 656.379 1410.06 652.473C1419.24 648.566 1425.88 643.195 1429.98 636.359C1434.09 629.523 1436.14 621.711 1436.14 612.922C1436.14 602.18 1432.52 593 1425.3 585.383C1418.07 577.766 1408.11 570.637 1395.41 563.996C1382.91 557.355 1368.75 550.227 1352.93 542.609C1342.97 537.922 1332.13 532.258 1320.41 525.617C1308.7 518.781 1297.56 510.48 1287.02 500.715C1276.47 490.949 1267.78 479.133 1260.94 465.266C1254.3 451.203 1250.98 434.406 1250.98 414.875C1250.98 389.289 1256.84 367.414 1268.56 349.25C1280.28 331.086 1296.98 317.219 1318.66 307.648C1340.53 297.883 1366.31 293 1396 293C1418.27 293 1439.46 295.637 1459.57 300.91C1479.89 305.988 1501.08 313.41 1523.15 323.176L1493.85 393.781C1474.12 385.773 1456.45 379.621 1440.82 375.324C1425.2 370.832 1409.28 368.586 1393.07 368.586C1381.74 368.586 1372.07 370.441 1364.07 374.152C1356.06 377.668 1350 382.746 1345.9 389.387C1341.8 395.832 1339.75 403.352 1339.75 411.945C1339.75 422.102 1342.68 430.695 1348.54 437.727C1354.59 444.562 1363.58 451.203 1375.49 457.648C1387.6 464.094 1402.64 471.613 1420.61 480.207C1442.48 490.559 1461.14 501.398 1476.57 512.727C1492.19 523.859 1504.2 537.043 1512.6 552.277C1521 567.316 1525.2 586.066 1525.2 608.527Z" fill="#78777A"/>
<path d="M1736.14 475.52L1825.49 299.152H1923.34L1781.25 560.773V727.473H1691.02V563.703L1548.93 299.152H1647.37L1736.14 475.52Z" fill="#78777A"/>
<path d="M2357.23 727.473H2241.8L2055.47 403.449H2052.84C2053.62 416.926 2054.3 430.5 2054.89 444.172C2055.47 457.844 2056.06 471.516 2056.64 485.188C2057.23 498.664 2057.82 512.238 2058.4 525.91V727.473H1977.25V299.152H2091.8L2277.84 619.953H2279.89C2279.5 606.672 2279.01 593.488 2278.42 580.402C2277.84 567.316 2277.25 554.23 2276.66 541.145C2276.27 528.059 2275.88 514.973 2275.49 501.887V299.152H2357.23V727.473Z" fill="#78777A"/>
<path d="M2630.57 727.473H2539.75V374.738H2423.44V299.152H2746.88V374.738H2630.57V727.473Z" fill="#78777A"/>
<path d="M3075 727.473L3043.95 625.52H2887.8L2856.74 727.473H2758.89L2910.06 297.395H3021.1L3172.86 727.473H3075ZM3022.27 549.348L2991.21 449.738C2989.26 443.098 2986.62 434.602 2983.3 424.25C2980.18 413.703 2976.96 403.059 2973.64 392.316C2970.51 381.379 2967.97 371.906 2966.02 363.898C2964.07 371.906 2961.33 381.867 2957.82 393.781C2954.5 405.5 2951.27 416.633 2948.15 427.18C2945.02 437.727 2942.78 445.246 2941.41 449.738L2910.65 549.348H3022.27Z" fill="#78777A"/>
<path d="M3573.34 727.473H3469.63L3370.02 565.461L3270.41 727.473H3173.15L3315.24 506.574L3182.23 299.152H3282.43L3374.71 453.254L3465.24 299.152H3563.09L3428.62 511.555L3573.34 727.473Z" fill="#78777A"/>
<path d="M3873.93 727.473H3627.25V299.152H3873.93V373.566H3718.07V467.609H3863.09V542.023H3718.07V652.473H3873.93V727.473Z" fill="#78777A"/>
<rect y="273.616" width="800" height="800" rx="150" transform="rotate(-20 0 273.616)" stroke="#78777A" stroke-width="70"/>
<rect x="273.617" width="800" height="800" rx="150" transform="rotate(20 273.617 0)" stroke="#78777A" stroke-width="70"/>
<path d="M284.973 578.07L408.02 525.58L284.973 474.066V401.557L503.479 504.584V546.576L284.973 650.092V578.07ZM751.037 650.092L532.531 546.576V504.584L751.037 401.557V474.066L627.99 525.58L751.037 578.07V650.092Z" fill="#78777A"/>
</svg>
