<svg width="3961" height="1026" viewBox="0 0 3961 1026" fill="none" xmlns="http://www.w3.org/2000/svg">
<path d="M1612.2 608.527C1612.2 633.918 1606.05 655.988 1593.74 674.738C1581.44 693.488 1563.47 707.941 1539.84 718.098C1516.4 728.254 1487.88 733.332 1454.29 733.332C1439.45 733.332 1424.89 732.355 1410.64 730.402C1396.57 728.449 1383 725.617 1369.91 721.906C1357.02 718 1344.72 713.215 1333 707.551V623.176C1353.31 632.16 1374.41 640.266 1396.28 647.492C1418.16 654.719 1439.84 658.332 1461.32 658.332C1476.16 658.332 1488.08 656.379 1497.06 652.473C1506.24 648.566 1512.88 643.195 1516.98 636.359C1521.09 629.523 1523.14 621.711 1523.14 612.922C1523.14 602.18 1519.52 593 1512.3 585.383C1505.07 577.766 1495.11 570.637 1482.41 563.996C1469.91 557.355 1455.75 550.227 1439.93 542.609C1429.97 537.922 1419.13 532.258 1407.41 525.617C1395.7 518.781 1384.56 510.48 1374.02 500.715C1363.47 490.949 1354.78 479.133 1347.94 465.266C1341.3 451.203 1337.98 434.406 1337.98 414.875C1337.98 389.289 1343.84 367.414 1355.56 349.25C1367.28 331.086 1383.98 317.219 1405.66 307.648C1427.53 297.883 1453.31 293 1483 293C1505.27 293 1526.46 295.637 1546.57 300.91C1566.89 305.988 1588.08 313.41 1610.15 323.176L1580.85 393.781C1561.12 385.773 1543.45 379.621 1527.82 375.324C1512.2 370.832 1496.28 368.586 1480.07 368.586C1468.74 368.586 1459.07 370.441 1451.07 374.152C1443.06 377.668 1437 382.746 1432.9 389.387C1428.8 395.832 1426.75 403.352 1426.75 411.945C1426.75 422.102 1429.68 430.695 1435.54 437.727C1441.59 444.562 1450.58 451.203 1462.49 457.648C1474.6 464.094 1489.64 471.613 1507.61 480.207C1529.48 490.559 1548.14 501.398 1563.57 512.727C1579.19 523.859 1591.2 537.043 1599.6 552.277C1608 567.316 1612.2 586.066 1612.2 608.527Z" fill="#78777A"/>
<path d="M1823.14 475.52L1912.49 299.152H2010.34L1868.25 560.773V727.473H1778.02V563.703L1635.93 299.152H1734.37L1823.14 475.52Z" fill="#78777A"/>
<path d="M2444.23 727.473H2328.8L2142.47 403.449H2139.84C2140.62 416.926 2141.3 430.5 2141.89 444.172C2142.47 457.844 2143.06 471.516 2143.64 485.188C2144.23 498.664 2144.82 512.238 2145.4 525.91V727.473H2064.25V299.152H2178.8L2364.84 619.953H2366.89C2366.5 606.672 2366.01 593.488 2365.42 580.402C2364.84 567.316 2364.25 554.23 2363.66 541.145C2363.27 528.059 2362.88 514.973 2362.49 501.887V299.152H2444.23V727.473Z" fill="#78777A"/>
<path d="M2717.57 727.473H2626.75V374.738H2510.44V299.152H2833.88V374.738H2717.57V727.473Z" fill="#78777A"/>
<path d="M3162 727.473L3130.95 625.52H2974.8L2943.74 727.473H2845.89L2997.06 297.395H3108.1L3259.86 727.473H3162ZM3109.27 549.348L3078.21 449.738C3076.26 443.098 3073.62 434.602 3070.3 424.25C3067.18 413.703 3063.96 403.059 3060.64 392.316C3057.51 381.379 3054.97 371.906 3053.02 363.898C3051.07 371.906 3048.33 381.867 3044.82 393.781C3041.5 405.5 3038.27 416.633 3035.15 427.18C3032.02 437.727 3029.78 445.246 3028.41 449.738L2997.65 549.348H3109.27Z" fill="#78777A"/>
<path d="M3660.34 727.473H3556.63L3457.02 565.461L3357.41 727.473H3260.15L3402.24 506.574L3269.23 299.152H3369.43L3461.71 453.254L3552.24 299.152H3650.09L3515.62 511.555L3660.34 727.473Z" fill="#78777A"/>
<path d="M3960.93 727.473H3714.25V299.152H3960.93V373.566H3805.07V467.609H3950.09V542.023H3805.07V652.473H3960.93V727.473Z" fill="#78777A"/>
<rect y="273.616" width="800" height="800" rx="150" transform="rotate(-20 0 273.616)" stroke="#78777A" stroke-width="70"/>
<rect x="273.617" width="800" height="800" rx="150" transform="rotate(20 273.617 0)" stroke="#78777A" stroke-width="70"/>
<path d="M284.973 578.07L408.02 525.58L284.973 474.066V401.557L503.479 504.584V546.576L284.973 650.092V578.07ZM751.037 650.092L532.531 546.576V504.584L751.037 401.557V474.066L627.99 525.58L751.037 578.07V650.092Z" fill="#78777A"/>
</svg>
