<svg width="200" height="39" viewBox="0 0 200 39" fill="none" xmlns="http://www.w3.org/2000/svg">
<path d="M7.06299 17.8851V13.5923H22.3823V17.8851H7.06299ZM7.06299 25.2503V20.9575H22.3823V25.2503H7.06299Z" fill="url(#paint0_linear_816_15)"/>
<path d="M24.882 21.6426V17.1892L40.3833 10.6804V15.5513L30.1491 19.3731L30.3096 19.1376V19.705L30.1491 19.4588L40.3833 23.2913V28.1515L24.882 21.6426Z" fill="url(#paint1_linear_816_15)"/>
<path d="M0 0H4.30659V38.7593H0V0Z" fill="url(#paint2_linear_816_15)"/>
<path d="M43.0659 0H47.3725V38.7593H43.0659V0Z" fill="url(#paint3_linear_816_15)"/>
<path d="M0 0H12.1446V4.30659H0V0Z" fill="url(#paint4_linear_816_15)"/>
<path d="M0 34.4527H12.1446V38.7593H0V34.4527Z" fill="url(#paint5_linear_816_15)"/>
<path d="M35.2279 34.4527H47.3725V38.7593H35.2279V34.4527Z" fill="url(#paint6_linear_816_15)"/>
<path d="M35.2279 0H47.3725V4.30659H35.2279V0Z" fill="url(#paint7_linear_816_15)"/>
<path d="M81.9913 25.0312C81.9913 26.3069 81.6822 27.4158 81.064 28.3579C80.4458 29.2999 79.5429 30.0261 78.3555 30.5364C77.178 31.0467 75.7452 31.3018 74.0574 31.3018C73.3116 31.3018 72.5805 31.2528 71.8641 31.1546C71.1576 31.0565 70.4756 30.9142 69.8181 30.7277C69.1704 30.5315 68.5522 30.2911 67.9634 30.0065V25.7672C68.984 26.2186 70.0438 26.6258 71.1429 26.9889C72.2419 27.352 73.3312 27.5336 74.4106 27.5336C75.1564 27.5336 75.7551 27.4354 76.2065 27.2392C76.6677 27.0429 77.0013 26.773 77.2074 26.4296C77.4135 26.0861 77.5165 25.6936 77.5165 25.252C77.5165 24.7123 77.335 24.251 76.9719 23.8683C76.6088 23.4856 76.1083 23.1274 75.4705 22.7938C74.8424 22.4601 74.131 22.102 73.3361 21.7192C72.8356 21.4837 72.291 21.1991 71.7022 20.8655C71.1134 20.522 70.5541 20.105 70.0241 19.6143C69.4942 19.1236 69.0575 18.5299 68.7141 17.8332C68.3804 17.1267 68.2136 16.2827 68.2136 15.3014C68.2136 14.0159 68.508 12.9168 69.0968 12.0042C69.6856 11.0916 70.5246 10.3948 71.6139 9.91397C72.713 9.42331 74.0083 9.17798 75.4999 9.17798C76.6186 9.17798 77.6833 9.31046 78.6941 9.57541C79.7147 9.83056 80.7794 10.2035 81.8883 10.6941L80.4163 14.2416C79.4252 13.8392 78.5371 13.5301 77.752 13.3142C76.967 13.0885 76.1672 12.9757 75.3527 12.9757C74.7835 12.9757 74.2978 13.0689 73.8955 13.2554C73.4931 13.432 73.1889 13.6871 72.9828 14.0208C72.7767 14.3446 72.6737 14.7224 72.6737 15.1542C72.6737 15.6645 72.8209 16.0963 73.1153 16.4496C73.4195 16.793 73.8709 17.1267 74.4695 17.4505C75.0779 17.7743 75.8336 18.1521 76.7364 18.5839C77.8354 19.104 78.7726 19.6487 79.5479 20.2178C80.3329 20.7772 80.9364 21.4396 81.3584 22.205C81.7804 22.9606 81.9913 23.9027 81.9913 25.0312Z" fill="#C4BFBF" fill-opacity="0.56"/>
<path d="M92.5896 18.3484L97.0791 9.48709H101.996L94.8564 22.6319V31.0074H90.3227V22.7791L83.1836 9.48709H88.1295L92.5896 18.3484Z" fill="#C4BFBF" fill-opacity="0.56"/>
<path d="M123.796 31.0074H117.996L108.634 14.7273H108.502C108.541 15.4044 108.575 16.0865 108.605 16.7734C108.634 17.4603 108.664 18.1472 108.693 18.8342C108.722 19.5113 108.752 20.1933 108.781 20.8802V31.0074H104.704V9.48709H110.459L119.806 25.6053H119.91C119.89 24.938 119.865 24.2756 119.836 23.6181C119.806 22.9606 119.777 22.3031 119.748 21.6456C119.728 20.9882 119.708 20.3307 119.689 19.6732V9.48709H123.796V31.0074Z" fill="#C4BFBF" fill-opacity="0.56"/>
<path d="M137.529 31.0074H132.966V13.2848H127.122V9.48709H143.373V13.2848H137.529V31.0074Z" fill="#C4BFBF" fill-opacity="0.56"/>
<path d="M159.859 31.0074L158.299 25.8849H150.453L148.893 31.0074H143.976L151.572 9.39878H157.151L164.775 31.0074H159.859ZM157.209 22.0578L155.649 17.0531C155.551 16.7194 155.419 16.2925 155.252 15.7724C155.095 15.2425 154.933 14.7077 154.766 14.168C154.609 13.6184 154.481 13.1425 154.383 12.7402C154.285 13.1425 154.148 13.643 153.971 14.2416C153.804 14.8304 153.642 15.3897 153.485 15.9196C153.328 16.4496 153.215 16.8274 153.147 17.0531L151.601 22.0578H157.209Z" fill="#C4BFBF" fill-opacity="0.56"/>
<path d="M184.897 31.0074H179.687L174.682 22.8674L169.677 31.0074H164.79L171.929 19.9087L165.246 9.48709H170.281L174.917 17.2297L179.466 9.48709H184.382L177.626 20.1589L184.897 31.0074Z" fill="#C4BFBF" fill-opacity="0.56"/>
<path d="M200 31.0074H187.606V9.48709H200V13.2259H192.169V17.951H199.455V21.6898H192.169V27.2392H200V31.0074Z" fill="#C4BFBF" fill-opacity="0.56"/>
<defs>
<linearGradient id="paint0_linear_816_15" x1="33.845" y1="10.6804" x2="13.6013" y2="28.1515" gradientUnits="userSpaceOnUse">
<stop stop-color="#D37146"/>
<stop offset="1" stop-color="#848E90"/>
</linearGradient>
<linearGradient id="paint1_linear_816_15" x1="33.845" y1="10.6804" x2="13.6013" y2="28.1515" gradientUnits="userSpaceOnUse">
<stop stop-color="#D37146"/>
<stop offset="1" stop-color="#848E90"/>
</linearGradient>
<linearGradient id="paint2_linear_816_15" x1="39.1355" y1="-1.10202e-06" x2="8.23693" y2="38.7593" gradientUnits="userSpaceOnUse">
<stop stop-color="#D37146"/>
<stop offset="1" stop-color="#848E91"/>
</linearGradient>
<linearGradient id="paint3_linear_816_15" x1="39.1355" y1="-1.10202e-06" x2="8.23693" y2="38.7593" gradientUnits="userSpaceOnUse">
<stop stop-color="#D37146"/>
<stop offset="1" stop-color="#848E91"/>
</linearGradient>
<linearGradient id="paint4_linear_816_15" x1="39.1355" y1="-1.10202e-06" x2="8.23693" y2="38.7593" gradientUnits="userSpaceOnUse">
<stop stop-color="#D37146"/>
<stop offset="1" stop-color="#848E91"/>
</linearGradient>
<linearGradient id="paint5_linear_816_15" x1="39.1355" y1="-1.10202e-06" x2="8.23693" y2="38.7593" gradientUnits="userSpaceOnUse">
<stop stop-color="#D37146"/>
<stop offset="1" stop-color="#848E91"/>
</linearGradient>
<linearGradient id="paint6_linear_816_15" x1="39.1355" y1="-1.10202e-06" x2="8.23693" y2="38.7593" gradientUnits="userSpaceOnUse">
<stop stop-color="#D37146"/>
<stop offset="1" stop-color="#848E91"/>
</linearGradient>
<linearGradient id="paint7_linear_816_15" x1="39.1355" y1="-1.10202e-06" x2="8.23693" y2="38.7593" gradientUnits="userSpaceOnUse">
<stop stop-color="#D37146"/>
<stop offset="1" stop-color="#848E91"/>
</linearGradient>
</defs>
</svg>
